<svg version="1.0" xmlns="http://www.w3.org/2000/svg" width="533.333" height="400" viewBox="0 0 400 300"><path d="M0 72.6v72.7l2.5-2.7c2.9-3.1 3.6-3.2 6-.6 1 1.1 2.1 1.7 2.6 1.5 1.2-.8-.2 6.7-1.7 9.2-2 3.3-6 3-7.8-.5l-1.5-2.7v4.5c0 2.5.3 3.9.6 3.3.8-2.1 4.3.5 4.3 3.2 0 1.3-1.1 3.2-2.5 4.3-1.6 1.3-2.5 3-2.5 4.7v2.8l2.1-2.7c2.8-3.5 5.5-3.3 7.9.6 1.1 1.8 2 2.7 2 2 0-.7 1.1-2.4 2.5-3.8 2-2 2.2-2.6 1-3-.9-.4-1.5-1.9-1.5-3.5 0-2.3-.4-2.9-2.2-2.9-1.7 0-1.9.3-.9.9.9.6 1 1.1.2 1.5-.6.4-1.1 1.6-1.1 2.7s-.4 1.7-1 1.4c-.5-.3-.7-1.9-.3-3.5.4-2.3.2-3-1.1-3-.9 0-1.6-.4-1.6-.9 0-1.4 3.2-2.3 4.3-1.2.5.5 2.1.6 3.7.1s3.2-.5 3.6-.2c.4.4.4.2.1-.4-.4-.7-.7-4.1-.8-7.8-.1-3.6-.6-6.3-1-6-.5.3-.7 1-.4 1.5.4.5 0 .9-.8.9-1 0-1.2-.9-.9-3.3.3-1.7.7-2.6.9-2 .3.7 1.1 1.3 1.9 1.3.8 0 1.7.7 2.1 1.6.5 1.3.7 1.3 1.4.2.7-1 .9-1 .9.2 0 .9-.5 2.1-1.1 2.7-.5.5-.9 3.2-.7 5.9l.3 4.9h3.8c4.3.1 4.2.2 2.2-2.8-1-1.5-1.6-5.7-1.9-11.8-.2-5.2-.1-8.6.1-7.6.3 1.2 1.1 1.7 2.3 1.4 1.2-.3 2.2.4 3.1 2.1.8 1.4 2.4 3.7 3.7 5.1 2.2 2.4 2.3 2.4 3.7.5.8-1 1.5-2.6 1.5-3.4 0-1.2.2-1.3.9-.1 1.6 2.6 3.1.1 2.7-4.5-.2-2.4 0-4.7.5-5 .5-.3.9-1.8.9-3.4 0-10.6 10.4-49.8 17.4-65.4 4.2-9.5 4-5.7-.3 5.1-6.5 16.3-12 36.6-14.5 53.7-1.6 10.6-1.5 23.9.2 25.9.9 1 .7 2.2-.7 5-1.9 3.7-1.9 3.7.1 4.8 1.1.6 3.1.8 4.4.5 1.9-.5 2.4-1.3 2.4-3.6 0-2.7-.2-3-2.5-2.4-1.5.4-2.5.2-2.5-.5 0-.6.7-.8 1.5-.5 1.9.8 3.1-2.2 1.5-4-1.6-2-.9-8.8 1-9.4 1.2-.4 1.3-.2.2.9-1.7 1.8-1.5 3.9.3 3.9.8 0 1.5.7 1.5 1.5s.5 1.5 1 1.5c1.4 0 1.2-5.4-.2-6.8-.8-.8-.8-1.2-.1-1.2 2.6 0 3.1 7.3.8 9.7-1.9 1.8-1.4 3.9.8 3.7.9-.1 1.4.2 1.1.7-.3.5-1.2.9-2 .9-2.2 0-1.8 4.8.6 5.5 3.1 1 6.3-.4 5.4-2.3-2.8-6.9-2.8-7-.9-10.6 1.6-2.9 1.7-4 .8-5.5-1-1.6-.9-2 .6-2.4 1.4-.3 1.6.1 1.3 2.6-.4 2.8-.3 2.9 2.2 2.5 2.1-.4 2.7-.1 3.2 1.8.8 3.1 2.7 3 4.4-.1.7-1.4 1.6-2.3 1.8-2 .3.3 1.3-.8 2.3-2.5 1.4-2.2 2.3-2.8 3.6-2.2 1.6.6 1.6.7-.4 1-3.1.5-3.6 2.9-1.2 5.3 1.7 1.7 2.3 1.9 3 .8.7-1.1.9-1 .9.3 0 .9-.4 1.9-.8 2.2-.8.5-1.6 7.6-.8 7.6.3 0 1.7-.5 3.1-1 2.5-.9 2.7-1.4 2.3-6-.1-2.8 0-5 .5-5 1.2 0 .8-3.8-.5-4.3-1-.4-1-.6 0-.6.6-.1 1.2-.9 1.3-1.9 0-1.4.2-1.4.8.3.5 1.1.6 3.5.3 5.4-.3 2.2 0 3.6.9 4.2 1 .6 1 .9.2.9-.7 0-1.3 1.1-1.3 2.5 0 1.6.6 2.5 1.5 2.5 1.1 0 1.5-1.3 1.6-5.5.3-10.8 2.2-22.4 6.3-38.7 6.4-25.2 21.4-54.1 39-75.2 3.6-4.3 6.6-8.4 6.5-9 0-.6-2.6-5.6-5.7-11.1l-5.8-10-16-.3-16-.2-6.6 8.7c-3.6 4.9-7.4 10.1-8.4 11.7-1 1.6-2 2.4-2.2 1.8-.3-1.1 6.6-11.6 12.5-19L97.3 0H0v72.6zm75.1-51.3c2.6 2 8.9 10.7 10.4 14.5 2.6 6.1 2 10.9-1.9 14.8-2.8 2.8-4.1 3.4-7.7 3.4-6.7 0-19.5-8.3-21.9-14.1-1.5-3.6-.2-9.1 3.2-13.4 4-5.2 14.1-8.1 17.9-5.2zm66.3-17.8c3.2 2 7.5 4.4 9.6 5.5l3.8 2 6.1-5.2C164.3 3 167 .5 167 .3c0-.1-7.1-.3-15.7-.3h-15.8l5.9 3.5zm24.5.7c-2.8 2.4-6.1 5.1-7.3 6-1.1.9-1.9 1.9-1.6 2.1.3.2 8.1 4.7 17.4 10l16.9 9.6 3.1-2.5C207.4 18.8 236 5.5 255 1.3c3.3-.8-7.6-1.1-39.7-1.2L171.2 0l-5.3 4.2zM276.5 1c-.6 1-4.1 12.5-4.9 16.5-.4 1.6-.9 3.8-1.2 4.7-.4 1.3 0 1.8 1.3 1.9 1.5 0 1.4.2-.4.9-1.9.8-4.3 5.6-3.2 6.3.2.2 3.6-.1 7.6-.6 6.7-.8 7.2-1 7.6-3.5l.4-2.7.2 2.7c.1 2.3.6 2.8 2.6 2.8h2.5V0l-6 .1c-3.3.1-6.2.5-6.5.9zm14.7 13.9l-.2 15h5.2c2.9 0 7.8.5 10.8 1 3 .5 5.7.7 5.9.6.8-.8-1.2-2.6-2.5-2.1-1.8.7-2.5-.6-1.3-2.4.6-1 .9-1.1.9-.3 0 .7.5 1.3 1 1.3.7 0 .7-.6 0-1.9-.5-1.1-1-2.8-1-3.9 0-3.4-3.1-12.3-4-11.7-.6.3-1.8.1-2.7-.4-1.6-.9-1.6-1 .5-1.1 2.1 0 3-1.9 1.5-3.4-.4-.4-.8-1.7-.8-2.9 0-2-.6-2.2-6.5-2.4l-6.6-.3-.2 14.9zM356.7.8c2.4 1.5 6.2 8.2 5.6 9.9-.4 1.1-.3 1.4.5.9 2.1-1.3 1.4 4.9-.8 7.2-3 3.1-7.7 2.8-13.2-.8-2.6-1.7-4.9-3.7-5.2-4.5-.3-.8-1.1-1.3-1.8-1.1-.7.1-1 .1-.5-.1 2-1.2.1-3.4-4.5-5.1C329.3 4.4 310 .5 310 1.7c0 .3.6 2.9 1.4 5.7.8 2.8 2.3 7.8 3.2 11.1.9 3.3 2.4 6.4 3.2 6.9 1 .6 1.1 1 .3 1.6-1.5.9-.4 6 1.4 6 2 0 19.9 6.1 21.2 7.2.7.6 2.2.8 3.3.5 1.1-.3 1.8-.1 1.4.4-.3.5.6 1.4 2.1 2.1 2.2 1 2.8.9 4.1-.8 1.5-1.8 1.5-1.8.5.2-1 2.1.1 4.4 2.3 4.4.5 0 1.7.7 2.7 1.6 1.6 1.4 2 1.4 4.4-.2 1.5-1 3.9-2.5 5.5-3.3 15.3-8.7 20-11.5 20-12-.1-1.2-20.5-14.1-22.3-14.1-.8 0-.8-.3 0-1.1s2-.6 4.4.7c3.6 1.8 12.4 7.5 17.5 11.3l3.1 2.2 4.9-2.9 4.9-2.8.3-13.2.3-13.2h-22.3c-12.3 0-21.8.4-21.1.8zM135 2.4c0 1.2 52.2 92.1 53.7 93.6.9.8 1.4 1 1.2.4-.2-.6-11.8-21-25.8-45.3-13.9-24.3-25.2-44.3-25-44.5.2-.2 20.6 11.3 45.4 25.5 24.7 14.2 45.2 25.6 45.4 25.3.6-.6 2.9.7-45.4-26.9-24.7-14.2-46-26.5-47.2-27.3-1.3-.8-2.3-1.1-2.3-.8z"/><path d="M260 3.1c-7.5 1.6-16.1 3.9-23.5 6.5-8 2.8-31.5 14.3-31.5 15.4 0 .4-1.3 1.3-3 2-1.6.7-3 1.6-3 2 0 .4-1.1 1.2-2.5 1.8-1.4.6-2.5 1.6-2.5 2.2 0 1.5 10 6.2 11.7 5.6 1-.4 1.3-.2 1 .8-.6 1.5 7 6.3 8.1 5.1.4-.4.1-1-.6-1.2-1.4-.5-.6-2.3 1-2.3.6 0 .8.3.5.7-.4.3-.2 1.2.4 2 .6.7.8 1.3.5 1.3-.4 0 .5 1.1 2.1 2.4 2.2 1.9 3.1 2.1 4.5 1.3 1.6-1.1 1.6-1.3-.2-4.4-1-1.8-1.5-3.5-1.1-3.7.4-.3 1.4 1 2.1 2.9.8 1.9 1.6 3.5 1.8 3.5.3 0 1.9-.9 3.6-2 4.1-2.5 25-10.9 29.6-11.9l3.5-.7 3.4-12.9C270.8.3 270.7 2 267.4 2.1c-1.6.1-4.9.5-7.4 1zM151.6 16.9c-.6.9 25 26.1 26.5 26.1.5 0 2.7-1.7 5-3.9l4.1-3.8-16.9-9.7c-9.3-5.3-17.2-9.6-17.5-9.6-.4 0-.9.4-1.2.9zm-2.9 2.7c-.2.5 3 6.8 7.2 14 10.4 17.9 12.1 20.7 12.4 20.3.1-.3 1.9-2.3 4-4.5l3.8-4.1-3.3-3.4c-13.9-14-23.6-23-24.1-22.3zm-9.2 10.5c-18.4 22.3-31.4 46.6-38.9 72.5-6.2 21.4-6.8 30.1-2.5 34 1 .9 1.9 2.4 1.9 3.3 0 1.2.2 1.3.9.3.4-.7.5-3.1.1-5.3-.4-2.1-.4-3.9.1-3.9.4 0 .9 1.5 1.1 3.2l.3 3.3 1.7-3.8c.9-2 2.2-3.7 2.7-3.7 1 0 3.1 3.2 3.1 4.7-.1.4-.7-.3-1.4-1.6-1.3-2.4-1.4-2.4-2.5-.4-.8 1.6-.7 2.4.3 3.2.7.6 1.7.7 2.1.3.5-.4.5-.1.1.6s-.5 2.1-.1 3c.5 1.4.9 1 2.1-1.7.8-1.8 1.4-4.2 1.4-5.2 0-1.1.5-1.9 1-1.9.6 0 1 1.1 1 2.5s.5 2.5 1 2.5c.6 0 1-.9 1-1.9 0-1.1.3-2.2.8-2.5.4-.2.6 2 .4 5-.2 3.6.1 5.4.9 5.4.7 0 .9-1 .7-2.5-.3-1.4-.1-2.8.3-3.1.5-.3.9-1.7 1-3.2l.1-2.7.8 2.5c.5 1.6.8 1.9.9.8.1-.9.5-1.9 1-2.2.4-.3.6.6.3 1.9-.3 1.9 0 2.5 1.3 2.5s1.6-.6 1.3-2.5c-.3-1.4-.1-2.2.5-1.8.5.3.6 2.3.3 4.6l-.7 4.1 2.2-2.8c1.2-1.5 1.9-3.5 1.6-4.6-.3-1.1-.1-2.3.4-2.6.5-.3.9.7 1 2.3.1 2.1.3 1.7 1.1-1.7.5-2.5 1.8-8.1 3-12.5 1.1-4.4 2.2-9.1 2.5-10.5.7-3.2 4.1-10.9 10.4-23.3 2.7-5.4 4.6-10.3 4.3-10.9-.4-.6-.3-.8.3-.5 1.3.8 4.6-4 3.8-5.4-.4-.5-.2-.8.3-.7.6.2 2.5-1.7 4.3-4.2 3.2-4.4 3.2-4.4 1.4-7.5-.9-1.6-5.3-9.4-9.7-17.3-4.4-7.8-8.1-14.2-8.1-14.2-.1 0-2.4 2.7-5.2 6.1zm132.8 2.8c-4.5.8-5.5 1.3-6 3.4-.1.7-.6 2.5-.9 4.1l-.7 2.9 4.4-.6c2.4-.4 7.9-1 12.2-1.3l7.7-.7V32l-6.2.1c-3.5.1-8.2.5-10.5.8zm19 3.5c-.1 3.9.2 4.6 1.8 4.6 1.2 0 1.9-.7 1.9-2 0-1.1.4-2 .9-2s.7.9.4 2c-.4 1.6 0 2 2.1 2 1.6 0 2.6-.5 2.6-1.5 0-.8.4-1.5.9-1.5s.8.8.7 1.7c-.1 1.3 1.4 1.9 6.4 2.9 3.6.6 6.7 1 6.9.8.2-.2 0-1.1-.3-2.1-.6-1.4-.9-1.5-1.6-.3-.5.9-.6-.2-.3-2.8.3-2.3.2-4.3-.3-4.4-2.4-.4-6.6-.8-14-1.4l-8-.6-.1 4.6zm28.2.4c.4 1 .9 3.2 1.2 5 .7 3.8.7 3.8 5.7 4.8 3.4.6 3.8.5 3.3-1-.4-1-.1-1.6.9-1.6 1.1 0 1.2.4.5 1.9-1.2 2.1-.5 3.1 1.8 3.1.9 0 2.2-1.4 2.9-3.2.6-1.7 1.4-2.9 1.8-2.6.3.3-.2 2-1 3.7l-1.6 3 6.5 3.1c6.2 2.9 6.6 3 9 1.4 1.4-.9 2.5-2 2.5-2.5s.7-.6 1.5-.3c.8.4 1.5.2 1.5-.3 0-1-9.1-6.5-14-8.3-1.9-.7-3.9-1.7-4.4-2.2-.6-.4-2-.8-3.2-.8-1.3 0-2.5-.4-2.8-.9-.3-.5-1.6-1.1-2.8-1.4-1.3-.3-4-1-6.1-1.5-3.4-.9-3.8-.8-3.2.6zM184 41l-4.5 3.9 4.5 4.5c3.7 3.6 4.7 4.2 6 3.3 1.3-1.1 1.3-1 .1.5-1.2 1.7-.9 2.3 1.2 1.9.5-.1.6.2.3.7-.6.9 3.5 4.8 4.7 4.4.4-.1.7.4.7 1.1 0 .8.8 2.1 1.8 3 1.4 1.3 2 1.3 3.6.2 1.7-1.3 1.7-1.5-.9-4.9-1.5-2-3-3.6-3.4-3.6-1 0-3.3-4.1-2.7-4.8.6-.5 4.5 3.5 7.3 7.5 1.8 2.6 3.5 2.9 5.2.9.9-1.1.6-2.1-1.5-4.5-1.5-1.8-2.4-3.5-2-3.8.7-.8.9-.6 3.3 3.5l2 3.3 2.4-2.1 2.4-2-2.7-2.4c-1.5-1.3-2.5-2.6-2.2-2.9 1-1-10.8-6.8-12.7-6.2-1.3.4-1.7.2-1.4-.7.5-1.2-4.2-4.8-6.2-4.8-.4 0-2.8 1.8-5.3 4zm61.5-1.1c-11.1 4.4-12.6 5.3-12 6.9.3.7.5 1.8.5 2.3 0 .5.7.9 1.5.9.9 0 1.2.6.9 1.5-.4.8-.3 1.5.1 1.5.7 0 18.2-6.8 19.7-7.6.3-.3.2-1.9-.3-3.6-.6-2.3-.5-3.4.4-4 3-1.9-4.4-.5-10.8 2.1zM388 38.5c-1.4.8-6.8 3.9-12 6.9-13.5 7.8-12.8 7.3-11 8.5 2.9 2 6.4 4.6 7.9 6.1.9.8 2.9 2.6 4.4 4l2.8 2.4 9.9-9.9c5.5-5.5 10-10.4 10-11 0-1.4-7.2-8.5-8.5-8.5-.6 0-2.1.7-3.5 1.5zm-117.8 8c-23 4.2-47.5 17.3-62.5 33.5-20.3 21.9-30.8 48.3-30.8 77.5 0 26.3 9 50.6 26.6 71.8l5.7 6.9 3.3-3.2 3.3-3.2-6.6-8.8c-3.7-4.8-8.3-11.9-10.2-15.6-1.9-3.8-3.8-7.1-4.2-7.2-.5-.2-.8-1.2-.8-2.1 0-3-2.1-8.1-3.1-7.5-.6.3-.8-.6-.5-2 .3-1.6 0-2.5-.7-2.3-.6.1-1.2-.9-1.3-2.2-.1-1.3-.7-2.7-1.4-3.1-.8-.5-1-1.9-.7-4.1.4-1.9.9-5.1 1.3-7.2l.6-3.9-4.3.4c-3.9.3-4.4.1-4.7-2-.4-2.5 1.5-3 2.4-.7.8 2 2.4 1.9 2.4-.1 0-1.2.9-1.4 4.2-1.2 3.8.3 6.9 2.8 3.4 2.8-.9 0-1.6.8-1.6 2 0 1.1.7 2 1.5 2s2.2 1.1 3 2.4c1.6 2.4 1.6 8 0 16.7-.5 2.3-.3 3.9.4 4.3.6.4 1.1 1.6 1.1 2.6 0 4.3 11.4 23.5 19.4 32.7l2 2.3 2.7-2.6c1.9-1.8 2.9-2.2 3.4-1.4.5.7-1.7 3.7-5.5 7.5-7.4 7.5-7.6 6.8 4 15.5 17.5 13 37.5 20.6 59.3 22.6l6.7.6v-4.5c0-3.6-.4-4.7-1.9-5.2-1-.3-2.3-.5-2.7-.3-.5.1-3.3-.1-6.3-.6-17.6-2.4-34.5-9.3-48.1-19.5-4.1-3.1-7.9-5.9-8.4-6.3-.6-.4-.7-1-.4-1.3.4-.4 4.3 2.1 8.7 5.4 15.4 11.7 33.4 18.9 52 20.5l7.1.7v-3.6c0-2.4.4-3.5 1.5-3.5 1.2 0 1.5 1.7 1.5 9.1v9.1l6.8-.6c15.2-1.4 27.4-4.8 40.8-11.2 9-4.3 20.9-12.2 25.4-16.9l3.4-3.5-3.1-3.1-3.1-3.1-4.3 3.9c-11.3 10.3-27.3 18.6-42.9 22.2-11.1 2.5-21 3.5-21 2.1 0-.5.8-1 1.8-1.1 7-.2 23.3-3.6 29.7-6.1 12.6-4.9 23.9-11.5 31.7-18.6l3.9-3.5-2.6-2.7c-2.3-2.4-2.4-2.8-1-4 1.3-1.1 2-.9 4.1 1l2.4 2.4 2.8-3c10-11 20.7-30.7 19.3-35.8-.1-.5.4-1.3 1.1-1.7 1.1-.7 1.1-1.2 0-3-1.2-1.9-1.2-2.1.2-1.6 2.3.9 2-.2-.6-2.2-1.2-1-2.3-2.8-2.5-4.1-.4-2.9 2.3-9 4-9 .7 0 .1-.9-1.3-2-1.4-1.1-2-2-1.3-2s1-.6.7-1.4c-.3-.9.2-1.3 1.7-1.2 1.2 0 2.4.8 2.6 1.6.4 1.2.3 1.2-.5.2-.7-1.1-1-1.1-1.5.2-.3.8-.1 1.8.5 2.2 1.1.7 2.8-1.3 2.8-3.4 0-.6.6-1.2 1.4-1.2 1.2 0 1.3 1.1.9 5.4-.7 6.3.2 10 1.7 7.6.7-1 .9 0 .8 3.3-.1 2.6-.6 5.1-1.1 5.4-.6.4-.7-.8-.3-3.2.5-2.5.4-3.5-.3-3-.6.3-1.1 1.7-1.1 3.1 0 1.5-.6 2.4-1.5 2.4-.8 0-1.5.7-1.5 1.5s.6 1.5 1.4 1.5c.8 0 1.7.4 2 .8.3.5-.5.8-1.7.8-1.6-.1-2.2.5-2.2 1.9 0 1.3.6 2 1.8 1.9.9-.1 1.7.2 1.7.7 0 1.2-2.7 1.1-3.5-.1-.9-1.5-2.5-.2-2.5 2 0 4.1-13.4 27-20.3 34.8l-2.1 2.2 3 3.1 2.9 3 3.8-4.3c8.7-9.9 16.9-24.2 21.2-37.1 1.6-4.9 1.7-6.1.6-7.9-1.1-1.8-1.1-2 .3-1.5 1.7.7 2 .3 3.1-4.7.5-2.2.3-2.7-.8-2.3-.8.3-1.4-.1-1.4-.9s.4-1.4.9-1.4c1.3 0 .9-1.7-.8-3.4-.8-.9-1.2-1.6-.7-1.6s1.5.6 2.2 1.2c1 1.1 1.1 1 .6-.5-.4-.9-1-1.7-1.4-1.7-.3 0-.7-1-.8-2.3-.1-1.2-.4-3.1-.5-4.1-.2-1 .2-2.1.9-2.3.7-.3 1.3.9 1.6 2.9.4 3.1.4 3.1.5-.7l.2-4h-8.2c-5.6 0-8.3-.4-8.5-1.3-.3-.7.5-1.2 2.1-1.2 2.5 0 2.6-.2 2.6-6.5 0-3.7-.4-6.5-1-6.5-.5 0-1-.5-1-1 0-.6.7-1 1.5-1s1.5-.6 1.5-1.4c0-2.4-1.6-2.6-3.9-.5-2 1.9-2.2 1.9-2.8.2-.3-1-.9-2.3-1.1-2.8-.3-.6.1-.4 1 .3 1.3 1 2.2 1.1 3.7.2 2.4-1.2 2.2-3.7-1.5-14.4-2.4-6.9-8.6-19-10.4-20.1-.6-.4-2.3.3-4 1.5-2.9 2-2.9 2-4 .1-.8-1.7-.5-2.3 2-3.8 1.6-.9 3-2 3-2.3 0-.4-1.6-2.5-3.6-4.9-2-2.3-3.3-4.5-3-4.9.4-.3 2.4 1.3 4.4 3.7l3.7 4.3 3.2-1.9c1.8-1 3.3-2.2 3.3-2.7s-2.1-3.3-4.6-6.3l-4.7-5.5-6.6 6.6c-3.7 3.6-7 6.6-7.4 6.6-1.5 0-.6-2.8 1.8-5 2.9-2.7 2.7-3-5.1-9-4.8-3.8-5.6-4.1-7.2-2.9-1.5 1.3-1.6 1.2-.4-.3 1.4-1.7 1.3-1.8-3.3-4.4-10.2-5.8-12.2-6.6-28-11.4-2.9-.9-12.4-2.2-17.4-2.4-1.3-.1-2.6-.7-2.9-1.4-.5-1.6 8.5-1 18.9 1.4 3.7.8 7.3 1.3 7.9.9.5-.3 1-.2 1 .4 0 .5 1.7 1.5 3.8 2.1 2 .6 4.8 1.7 6.1 2.3 1.9 1 2.5.8 3.7-.8.8-1 1.4-1.4 1.4-.9 0 .6-.5 1.5-1.1 2.1-.7.7.9 2.1 5.8 4.8 3.7 2 8.5 5.1 10.6 6.7 3.3 2.6 4 2.8 5.5 1.7 1.5-1.3 1.6-1.2.4.3-1.2 1.5-1 2.1 1.5 4.2l2.8 2.5 3-3 3-3-4.5-4c-25.8-22.6-61.3-33.1-92.8-27.4zm21.8 10c0 5.7.4 9.5 1 9.5s1.1-1.7 1.2-3.8l.1-3.7.4 3.7c.4 3.3.7 3.8 3.1 3.8 4.7.1 10.5 1.2 16.7 3.1 4.5 1.4 6.1 1.5 6.7.6.5-.8.8-.6.8.7 0 1.3.5 1.7 2 1.3 1.1-.3 1.8-.2 1.5.2-.2.4 1.2 1.6 3.2 2.5 13.5 6.4 33.3 23.7 34.8 30.3.2 1 2 6.1 4 11.3 6.5 17 7.4 19.9 9.1 28.5 1 4.9 2.4 9.2 3.5 10.4 2.2 2.3 2.4 7.7.9 18.5-.8 5.4-.8 7.2.2 7.9 1 .6.8.7-.4.4-1.2-.4-1.8.3-2.3 3.1-1.1 6.3-10.1 23.6-16.5 31.6-12.7 16-35.3 29.6-53 32-4.3.5-4.4.5-1.1-.5 1.9-.6 4.4-1.7 5.5-2.6 2-1.5 2-1.5-.9-.9-1.6.3-6.6 1.1-10.9 1.8-8 1.2-8.3 2.4-.6 2.9 1.9.1-.1.6-4.5 1.1-8.8.9-21.2-.2-30.5-2.9-8.4-2.4-21.2-8.5-20.2-9.5.6-.6 2.2-.4 4 .6 6 3.1 4.6 1.5-2.2-2.4-9-5.3-18.5-12.9-23.5-18.9-4.2-5-5.4-7.4-2.4-5 .9.8 0-.9-2-3.7-7.1-9.8-12.3-23.6-14.7-38.2l-.9-5.7.4 6.7c.7 11.2 5.8 24.7 14.3 37.7 1.6 2.3 1.6 2.3-.6 1-1.2-.8-2.2-1.7-2.2-2.1 0-.5-.5-.8-1.1-.8-.6 0-.8.8-.5 1.7.4 1.1-.2.8-1.3-.7-3-3.8-8.7-15.6-11.1-23.3-1.2-3.7-2.6-6.7-3.1-6.7s-.9-1.7-.9-3.8c0-2-.3-5.4-.6-7.5-.5-2.9-1-3.5-1.9-2.7-2.3 1.9-2.7-.8-.5-3l2-2-6.2-.1c-10.7-.2-12.1-.4-12.5-1.6-.2-.6.5-2.1 1.7-3.3 2.3-2.3 3.9-8 2.2-8-.6 0-1.3 1-1.5 2.2-.2 1.3-.5-.1-.6-3-.1-5.9.7-6.5 3.2-2.3 2.2 3.8 2.1 5.9-.3 9.9l-2 3.3 3.2-.3c2.7-.2 3.2-.7 3-2.3-.2-1.1-.6-3.5-.9-5.3-.3-1.8 0-3.9.6-4.6.7-.8 1.4-2.2 1.6-3.2.2-1.1 1.1-4.6 2-7.8 1.9-7.1 1.6-8.2-2.4-9.1-1.7-.4-3.1-1.1-3.1-1.6 0-1.3 4.3-.6 5.6.9.8 1.1 1.2 1.1 2.3-.2 1.7-2 .8-3.3-2.9-4.1-3-.7-3.8-1.9-2-3 .6-.3 1-.1 1 .5 0 .7.6 1 1.3.7.6-.2 1.7.3 2.3 1.1 1.2 1.7 3.4.8 3.4-1.4 0-1.3-1.2-1.8-3.2-1.5-.5 0-.8-.4-.8-1s-.7-.9-1.5-.5c-.9.3-1.5 0-1.5-1s.6-1.3 1.9-.9c1 .3 2.3-.1 3-.9 1-1.1.8-1.6-.6-2.5-1.4-.8-1.6-1.2-.5-2.2 1-1.1 1.2-1 1.2 0 0 .8.6 1.1 1.6.7.8-.3 1.2-.2.9.3-.3.5 0 1.3.7 1.7.7.5.4 1-1.1 1.6-2.3.8-2.5 2.8-.3 3.6.7.2 1.6-.8 2.1-2.1.6-1.4 1.5-2.8 2-3.2 1.9-1.1 1.2-2.5-1.6-3.7-1.6-.6-3.1-1.1-3.5-1-1.4.3-.8-1.5.9-2.9 1-.8 1.4-.9 1-.2-1.1 1.7.9 2.5 2.2.9 1-1.1.8-1.6-.5-2.4-1.6-.9-1.6-1.2.2-4 1-1.6 3.8-5.1 6.2-7.6l4.3-4.6 2.7 2.5c1.5 1.4 2.2 2.5 1.5 2.5-.6 0-1.9-.7-2.8-1.6-2.5-2.5-4.2-.2-1.9 2.5 2.3 2.7 3.5 2.6 5.6-.3 1.6-2.3 1.6-2.4-.7-4.6-2.8-2.7-3.2-4.8-1-5.7 1-.3 2.5.5 3.9 2.2 1.3 1.5 2.9 2.4 3.5 2.1.6-.4.9-1.2.6-1.7-.3-.5 0-.7.7-.4.7.3 2.8-.9 4.7-2.7 2.8-2.6 3.1-3.3 1.9-4.2-1.7-1.3-3.3-5.6-2.1-5.6.5 0 1.4 1.3 2 3 1.1 3 3.6 4 4.9 1.8.4-.6-.1-1.7-1.1-2.5-1.1-.7-1.5-1.3-1-1.3s.4-.5-.3-1.2c-1.5-1.5-1.6-2.8-.2-2.8.6 0 1 .7 1 1.5s.7 1.5 1.5 1.5c.9 0 1.2.6.9 1.5-.4.9 0 1.5.9 1.5 2.5 0 2.9-1.7 1.2-4.9-1.8-3.7-1.8-3.8-.1-3.8.7 0 1.1.7.9 1.6-.2.9.3 2.5 1 3.6 1.2 1.6 1.7 1.7 3 .6.9-.7 1.3-2 1-2.9-.4-1.4-.3-1.4.5-.3.9 1.2 2.6.8 10.6-2.3 6.7-2.7 9.4-4.2 8.8-5-1.8-2.2-2-5.5-.5-6 2.6-1 3.3-.7 3.3 1.6 0 4.4 1.2 5.1 7.1 4 3-.6 8.2-1.4 11.7-1.8l6.3-.6-.1-3.2c-.3-4.4-.2-4.6 1.5-4.6 1.2 0 1.5 1.7 1.5 9.5z"/><path d="M276.3 58.1c-10.3 1.4-10.6 1.5-9.8 5.7.4 2 .8 3.8 1 4 .1.2 3.1-.2 6.6-.8 3.5-.6 8.2-1.2 10.4-1.3 3.9-.3 4-.4 4.3-4.4l.3-4.2-3.8.1c-2.1.1-6.2.5-9 .9zm-28.2 8.4c-8.7 4.2-9.3 4.7-7.9 6.3.8.9 1.8 2.4 2.3 3.2.4.8-.4.2-1.7-1.4l-2.4-2.9-5.9 3.7c-4.4 2.9-5.5 4-4.4 4.7 2.5 1.6 4.1 1.1 3.4-1.1-.5-1.5-.3-1.8.9-1.4.8.3 1.7 1.2 2 2 .6 1.5 3.6 2 3.6.6 0-.4-.7-1.8-1.6-3-.8-1.2-1-2.2-.5-2.2.6 0 1.1.4 1.1.8 0 .5.6 1.6 1.3 2.6 1.2 1.6 1.6 1.5 6.1-1 2.7-1.5 8-3.9 11.8-5.4 3.8-1.5 6.9-3 6.9-3.4 0-.3-.2-2-.6-3.6-.9-4.1-3-3.9-14.4 1.5zm25.4 33.4c-16.2 4.6-31.3 17.3-38.5 32.3-7.7 15.9-8.6 32.9-2.8 48.6 2.4 6.5 7.4 14.8 10.8 17.7 1.6 1.4 1.2.5-1.2-3-18.3-25.9-16-57.4 5.6-79 12.6-12.6 27.2-18.1 45.6-17.2 13.7.6 20 2.8 35 12.3 1.5 1 1.1.4-1-1.5-4.4-4-13.8-8.6-21.5-10.6-8-2-24.3-1.9-32 .4z"/><path d="M315.5 121.4c16.5 7.6 15.9 26.7-1 33.2l-4.5 1.7 5.6 2.3c10.4 4.2 15.4 10.9 15.4 20.5 0 11.3-7.7 17.8-23.5 20-4.4.6-8.4 1.3-8.8 1.6-.5.3-.7 2.1-.4 3.9.6 3.3.5 3.4-2.9 3.4-1.9 0-3.4.5-3.4 1.1 0 .6 1.6.9 3.8.7 3.6-.3 3.7-.4 4-4.6.3-4.2.3-4.2 4.2-4.2 11 0 21.3-4.5 25.8-11.2 2.3-3.6 2.7-5.2 2.7-11.4 0-6.4-.3-7.7-3-11.5-2.1-2.9-5-5.4-8.9-7.3l-5.7-3 3.4-1.7c7.6-4 12.1-12.1 10.8-19.5-1.3-6.9-5.5-12-12.3-14.8-5.9-2.5-6.9-1.8-1.3.8zm-140.9-71c-1.4 1.9-2.6 3.9-2.6 4.5 0 .6-.4 1.1-1 1.1-.5 0-1 .5-1 1.1 0 .8.5.7 1.5-.1 2.1-1.8 3-.6 1 1.4-.9.9-1.2 1.7-.6 1.7.6.1 1.7.2 2.4.3.6.1 1.8-.3 2.6-.8 1.1-.9 1.3-.8.7.2-.8 1.3 2.3 5.2 4.1 5.2.5 0 1.7 1.1 2.7 2.5 1.5 1.9 2.2 2.3 3.2 1.4 1.5-1.2 1.9-3.9.6-3.9-.5 0-1.8-.9-3-2.1-1.2-1.1-2.7-1.7-3.4-1.3-.7.5-.8.3-.3-.6.5-.8.1-1.8-1-2.7-1.5-1-1.6-1.6-.7-2.5.9-.9 1.2-.8 1.2.4 0 2.2 4.4 5 5.8 3.6.8-.8.9-.5.6.9-.4 1.3.2 2.3 2 3.3 1.4.7 2.6 2 2.6 2.8 0 .8.6 1.2 1.5.8 1-.4 1.5.1 1.5 1.4 0 2.7-2.6 2.5-3.3-.2-.5-1.8-.8-1.9-2.1-.8-2.2 1.7-2 2.8.7 5 2.2 1.9 2.2 1.9 5.3-1.8l3.2-3.7-3.5-3.2c-1.9-1.8-3.9-3-4.5-2.7-.6.4-.8.2-.5-.3.6-1-3.4-5.6-10.5-12.1l-2.5-2.3-2.7 3.5zm216 8.5l-8.9 8.9 6.7 8.1c3.7 4.5 6.9 8.1 7.2 8.1.2 0 1.3-1.8 2.4-4 1.8-3.6 2-5.6 1.8-17l-.3-13-8.9 8.9zM360 54.8c0 .4-1.6 1.4-3.5 2.1-1.9.7-3.5 1.5-3.5 1.9 0 .4 2.4 2.4 5.3 4.5 2.8 2 7.1 5.6 9.5 7.8l4.2 4.1 2.8-3.3c1.5-1.8 2.7-3.7 2.7-4.3 0-.6-3.4-3.8-7.5-7.3-6.9-5.8-10-7.5-10-5.5zM156.5 74.7c-6.5 10.5-7.9 13.2-12.2 23.8-5.9 14.5-10 30.5-8.1 31.6.8.6.9.9.2.9s-1.4 1.5-1.6 3.4c-.3 3.1-.2 3.3 1.4 2.5 1-.5 1.8-1.6 1.8-2.3 0-1.6 3.2-4.6 4.8-4.6.7 0 1.2.5 1.2 1 0 .6-.8 1-1.7.8-1.2-.2-1.9.5-2.1 2.1-.4 2.2-.2 2.3 3.5 1.6 2.1-.4 4.1-.9 4.5-1.1 1.4-.9.9-2.4-.7-2.4-.8 0-1.5-.5-1.5-1 0-1.3 2.7-1.3 3.5 0 .4.7 1.3.6 2.7-.1 1.5-.8 2.2-.8 2.8.1.6 1 2.6.9 8.3-.7 2.4-.6 2.1-2.1-.5-2.6-2.1-.4-2.1-.4.3-.6 2.1-.1 2.8-.8 3.7-4 .7-2.1 1.2-4.6 1.2-5.4 0-1.8-4.2-3.3-6.1-2.2-.8.5-.9.1-.4-1.6 1-3.3 1.1-3.3 3.4-1 2.6 2.6 3.7 2.6 5.1.2 1.5-2.8 1.3-3.4-1-2.8-1.1.3-2 .1-2-.4 0-1.2-7.1-4.1-8.7-3.5-.7.3-1.3.1-1.3-.4 0-.8-8.1-5.6-8.7-5.1-1.2.6-2.3-.2-2.3-1.7 0-1.3.2-1.4.9-.4.4.8 1 1.3 1.2 1.2.2-.1 2.1.5 4.3 1.4 2.1.9 4.2 1.6 4.5 1.6.4 0 2.6.9 5 2 2.4 1.2 5.1 1.8 6.2 1.5 1.3-.4 1.9-.2 1.9.9 0 2.1 1.6 2.1 2.4 0 1-2.6.7-3.6-.8-3.1-.8.3-1.7-.1-2-.8-.3-.8-1.2-1.2-2.1-.9-.8.4-1.5.1-1.5-.6s-.6-1-1.4-.7c-.8.3-1.7-.1-2-.9-.3-.9-1-1.2-1.6-.9-.5.3-1 .2-1-.3 0-.6-2.5-2-5.5-3.3-3.4-1.4-5.5-2.9-5.5-3.8 0-1.4.1-1.4 1-.1.5.8 1 1.2 1 .7 0-.4 2.2.4 4.9 1.7 3.7 1.9 5.1 2.2 6 1.3 1-.9 1.1-.8.5.7-.6 1.6-.4 1.8 1.4 1.4 1.2-.3 2.1-.3 2 .1-.2 1.8.4 2.2 1.7 1.1 1.2-1 1.5-1 1.5.3 0 2.4 3.8 4.1 5.6 2.6 1.7-1.4 1.9-4.2.2-3.7-.7.3-1.9-.1-2.6-.9-.8-.7-1.8-1.1-2.3-.8-.5.4-.9.1-.9-.5 0-.7-.7-1-1.5-.6-.9.3-1.5 0-1.5-.8 0-1.2-3.4-3-5.2-2.7-.5.1-.8-.3-.8-.7 0-.5-1.8-1.7-4-2.7-4.3-1.9-5.2-3.5-2-3.2 1.1.1 2 .4 2 .7 0 .3.9 1.1 2.1 1.8 1.8 1.1 2.4 1.1 4-.4 1-.9 1.9-2.3 1.9-3.1 0-.7.5-1.3 1-1.3 1.5 0 1.2 1.6-.5 3-1.9 1.6-2 4.4-.1 3.7 1.1-.4 1.3-.1.9 1-.5 1.3-.2 1.5 1.5 1.1 1.2-.3 2.1-.3 2 .1-.2 1.8.4 2.2 1.7 1.1 1.3-1.1 1.5-1 1 .1-.3.8.7 2.1 2.5 3.1 2.8 1.6 3 1.6 4-.2 1.3-2.5 1.3-3-.4-3-.8 0-1.7-.7-2-1.6-.4-.9-1.3-1.4-2.1-1-.8.3-1.5.1-1.5-.5s-.7-.9-1.4-.6c-1 .4-1.3.1-1-.7.3-.8-.4-1.6-1.8-1.9-1.9-.5-2-.8-.9-1.9 1.1-1 1.4-1 1.8-.1.3.7 1.1 1.3 1.9 1.3.8 0 1.4.3 1.4.7 0 1.6 5.3 3.3 6.6 2.2 1-.8 1.1-.5.7 1.3-.5 2.2-.5 2.2 1.3.5 1.9-1.8 1.9-1.9-.3-3.6-1.2-1-1.9-2.2-1.5-2.6.4-.4-.3-.3-1.5.3-1.9 1-2 .9-1.6-.8.4-1.6.2-1.9-1.1-1.4-1.1.4-1.6.1-1.6-1 0-1-.6-1.3-1.5-1-1.1.5-1.3.2-.9-1 .3-.9.2-1.6-.4-1.6-.6 0-1.3.6-1.5 1.2-.3.7-.6.3-.6-.9-.1-2.5-3.5-4.8-5.3-3.7-.8.5-.9.1-.4-1.1.7-1.8.6-1.8-1.2-.2-1.9 1.7-1.9 1.7-1.5-.8.3-1.4.4-2.5.2-2.5s-1.7 2.1-3.4 4.7z"/><path d="M376.3 73.2l-3.1 3.3 3 3c6.8 6.9 17.6 25.1 21.8 36.7l1.9 5.3-.1-13c0-7.1-.4-13.8-.9-14.7-1.1-2.1-2.9-2.4-2.9-.6-.1 1.8-3.7 6.4-4.5 5.7-.3-.4 1.5-4.1 4-8.4 2.5-4.2 4.4-8.2 4.2-8.8-.2-.6-2.3 2.4-4.6 6.7-2.4 4.2-4.5 7.5-4.8 7.3-.2-.3.3-1.9 1.2-3.6 1.7-3.4 1.5-3.7-1.6-1.9-1.7 1.1-2.2 1-3.5-.7-1.2-1.7-1.2-2 .1-2.8 2.4-1.3 4.1.4 2 2-1.6 1.1-1.6 1.3-.3 1.3 2 0 3-2.4 1.5-3.9-.6-.6-.8-1.3-.5-1.7.4-.3 1.6.4 2.7 1.5 1.2 1.2 2.1 1.9 2.1 1.6 0-2.2-12.2-17.5-13.9-17.5-.4 0-2.1 1.5-3.8 3.2zm2.4 25.1l-2.8 2.2 5.4 10.6c3 5.8 6 12.6 6.8 15.2 1.1 3.8 1.7 4.7 3.4 4.5 1.5-.2 2.1.3 2.3 2.6.2 1.9-.2 3.2-1.2 3.8-1.3.7-1.5 1.8-1 5 .4 2.2.8 5.3.9 6.7.1 1.4.3 3.6.3 4.8.2 1.7.8 2.1 3.2 2.1 2.7-.1 2.9-.3 1.7-1.7-3.3-3.8-4.5-14.2-2.1-17.8.8-1.3 1.9-2.1 2.4-1.8.6.4 1 .1 1-.5s-.6-1.3-1.3-1.6c-.7-.2-1.2-2.1-1.2-4.2-.1-2-1.1-6.4-2.4-9.7-2.6-6.6-11.1-22.5-12-22.5-.3 0-1.9 1-3.4 2.3zM129 141.6c-25 6.8-48.5 13.2-52.2 14.1-3.8.9-6.8 1.9-6.8 2.2 0 .3 9.6 3.2 21.3 6.4 11.6 3.1 35.2 9.5 52.4 14.2 17.2 4.7 31.6 8.5 32 8.5 3.9 0-8.5-3.7-50.4-15.1C98.2 164.6 76 158.3 76 158c0-.3 22.2-6.5 49.3-13.9 27-7.3 49.6-13.7 50.2-14.2.6-.6.6-.9 0-.8-.6 0-21.5 5.6-46.5 12.5z"/><path d="M160.3 136.3c-2 .9-2.3 1.8-2.5 7.6-.2 9.3-.3 9.9-1.1 10.7-.4.4-.7-.9-.7-2.8 0-2.5-.6-3.8-1.7-4.4-3.7-1.6-3.7-1.6-5.9 7.1-.5 1.9 0 2 6.4 2.2l7 .1.4-10.7c.3-5.8.4-10.7.4-10.7-.1-.1-1.1.3-2.3.9zm-3.9 25.9l.1 3.3h-5.3c-3.2 0-5.6-.5-6.1-1.3-.6-1-1-1-2.1.3-1.4 1.7-4.3 1.9-7 .5-2.9-1.6-3.6.8-1.1 4.1 1.1 1.5 2.1 3.3 2.1 3.9 0 .5.7 1 1.5 1s1.5-.8 1.5-1.8c0-1.1.9-2.7 2-3.7 3-2.7 6.7-.7 7.6 4.1l.7 3.7 1.3-3.8c2.9-8.5 9.4-6.6 9.4 2.7 0 2.7.5 4.8 1.3 5.1.9.3 1-1.9.2-10.7-.5-6.1-1.1-9.9-1.3-8.4-.2 1.4-.9 3.2-1.7 3.8-1.2 1-1.3.6-.8-2.4.4-2.8.2-3.6-.9-3.6-1 0-1.4 1-1.4 3.2zm-83.7 2.3c-1.7 2.4-1.9 2.4-4.9.9-2.2-1.1-3.3-1.3-4.1-.5-1.5 1.5-4.5 1.4-5.4-.3-.7-1.2-1.2-1.1-3 .4-2.2 1.7-2.2 1.8-.3 3.5 1.1 1 2 2.8 2.1 3.9 0 1.7.3 1.5 1.7-1.2 1.6-3.2 5.1-5 7.2-3.7.5.3 1.9 2.4 3 4.6 2.1 3.9 5.5 5.5 4.8 2.1-.2-.9-1.1-1.6-2.1-1.6-.9.1-1.7-.3-1.7-.8 0-.6 1.1-.8 2.5-.6 1.7.4 2.5.1 2.5-.8 0-.8-.4-1.4-1-1.4-.5 0-1-.5-1-1 0-.6.9-1 2-1 1.3 0 2 .7 2 2 0 1.1.7 2 1.5 2s1.5.4 1.5 1c0 .5.5 1 1 1 .6 0 1-.6 1-1.3 0-.7.9-2.3 2-3.4 2-2.2 1.5-3.3-2.2-4.6-1.2-.4-1.8-.1-1.8.8 0 2.1-1.8 1.8-3.2-.5-1.6-2.5-1.9-2.5-4.1.5z"/><path d="M77 173.9c0 1.3.5 1.9 1.4 1.5 1-.4 1.4.4 1.4 3 0 3.9-1.8 5.1-1.9 1.3 0-2.1-.1-2.1-1.2.3l-1.1 2.5-.4-2.8c-.2-1.5-.8-2.7-1.3-2.7-.6 0-.8.8-.5 1.7.3 1 .2 4-.3 6.8-.5 2.7-.9 4-1 2.7-.1-2.6-3.1-3.1-3.2-.5 0 1.4-.2 1.3-.9-.5-1.3-3-2.8-2.8-3.3.5l-.4 2.8-.2-2.7c-.1-3.3-3.1-2.8-3.1.6-.1 1.4-.6.8-1.6-1.9-.8-2.2-1.5-5.7-1.5-7.8.1-5.8-.6-4.4-2.1 4-.7 4.3-1.4 6.8-1.6 5.7-.4-2.5-4.1-3.9-4.8-1.9-.3.8-.3 1.9.1 2.5.3.5.1 1-.6 1-.8 0-1-1.5-.5-5.3l.7-5.2-2.1 4c-2.6 5.1-2.5 7.8.5 23.3 5.9 30.5 17.3 58.7 34.2 85L87 300h53l1.7-3.4 1.6-3.5-5-5.8c-9.8-11.3-24.4-33.5-23-34.9.2-.3 3.2 3.9 6.5 9.3s9.8 14.4 14.3 20.1l8.2 10.3 4-6.8c2.1-3.7 6.6-11.6 9.9-17.5l6-10.7-5.8-8.7c-11.5-17.3-21.2-39.6-24.5-56.5-1.2-6.2-2.8-7.8-3-3.2-.2 2.7-.2 2.7-.6.4-.3-1.4-1.2-3.5-2-4.8-1-1.5-1.3-3.5-.9-5.6l.5-3.2-1.5 2.7c-.8 1.6-1.9 2.8-2.4 2.8-.6 0-1 .7-1 1.5s.5 1.5 1 1.5c.6 0 .9 1.5.9 3.2-.2 3.1-.2 3.1-.6.5-.2-1.5-.9-2.7-1.4-2.7-.5 0-.9-.6-.9-1.3 0-.6-1.2-2-2.5-3-2.5-1.8-2.5-1.8-2.5.7 0 3.4-2.7 6.1-4.6 4.5-1.9-1.6-1.8-1.9.9-1.6 1.9.2 2.2-.3 2.5-3.8l.3-4-2.8 3.2c-2.8 3.1-3.1 3.2-5.1 1.7-2-1.4-2.2-1.4-2.2.5 0 1.1.5 2.3 1 2.6.6.3.9 1.8.9 3.3l-.1 2.7-.8-3c-.4-1.7-.8-2.6-.9-2-.1.5-.6.3-1.1-.5-.5-.8-.7-3-.5-4.7.2-1.8 0-3.3-.5-3.3-2.4 0-4 1.5-4 3.6 0 1.3-.9 3.3-2 4.4-3.3 3.3-2.4 12.8 3 30.2 1.9 6.3 2 6.4 5.1 6 3.7-.5 7.7 2.8 12 10.3 4.9 8.5 3.4 16.2-3.7 18.5-4.2 1.4-8.4.6-12.1-2.3l-2.8-2.2 8-.5 8-.5.1-5.5v-5.5l-.3 5.2-.4 5.2-8.2.3c-7.8.3-8.4.2-11.4-2.6-2.4-2-3.3-3.7-3.3-5.8 0-3.9 3.6-10.2 6.7-11.9 1.4-.8 2.2-1.9 2-2.9-3-9.8-6-22.5-7.6-31.5-1-6.1-1.9-9.6-2-7.9-.1 1.8-.7 3.4-1.6 3.8-.8.3-1.5 1.3-1.6 2.3 0 1.4-.2 1.3-.9-.5-.5-1.2-1.6-2.2-2.3-2.2-.9 0-1.3-.8-1-2.3.4-2.4-3.4-9.8-5.4-10.5-.8-.2-1.3.5-1.3 1.7z"/><path d="M21.5 179.7c-1 6.1-1.3 6.5-4.2 6.1-2.3-.2-2.9-.9-3.4-3.8-.4-1.9-.7-2.6-.8-1.5-.2 1.9-.3 1.8-1.1-.3l-1-2.2-2 2c-1.1 1.1-2 2.4-2 2.9 0 1.5 3.3 2.2 4.2.9.7-1 .9-.9.5.2-.2.8-1.6 1.6-3 1.8-2.1.3-2.7-.1-2.7-1.5 0-1-1.2-2.6-2.6-3.6l-2.5-1.8.3 3.3c.1 1.9-.2 3.9-.6 4.6-.4.7-.2 2 .6 2.9.9 1.2.9 1.5.1.9-1-.6-1.3 10.6-1.3 54.3V300h42.5c23.4 0 42.5-.2 42.5-.5s-2.1-3.7-4.7-7.7C63.8 266 51 233.4 45.4 202.6c-2.8-15-4.7-21.1-6.4-20.1-.5.3-1.1 2.5-1.1 4.8-.1 2.8-.3 3.3-.6 1.6-.3-1.9-1.1-2.8-2.8-3.1-2-.4-2.5 0-2.8 2.1-.3 1.4-.3.7-.2-1.7.1-2.3 0-4.2-.2-4.2-.9 0-4.8 5.3-5.5 7.4-.5 1.7-.6 1.4-.7-1.1-.1-1.7-.6-3.5-1.2-3.9-.6-.3-.9-2.4-.7-4.5.5-5-.9-5.1-1.7-.2zm114 5.3c1 17.7 12.9 46.7 26.3 64.7l3.9 5.2 3.8-6.7c2-3.7 5.1-9.2 6.8-12.2 1.6-3 3.6-6.3 4.3-7.4 1-1.5.8-2.5-1.5-6.5-4.4-7.5-9.8-20.1-12.2-28.4-1.5-5.2-2.7-7.7-3.8-7.9-.9 0-2.1-.2-2.8-.2-.6-.1-1.5-.5-1.9-.9-.4-.4-1.4-.7-2.3-.6-1.2 0-1.1.3.4.9 1.5.6 1.6.9.4.9-.9.1-2.6-.8-3.9-1.9-3-2.6-9.7-2.5-10.6.2-.3 1-1.4 1.8-2.7 1.7h-2.2l2.3-.9c1.2-.5 2.2-1.8 2.2-2.9 0-2.5-3.9-3.6-4.8-1.3-.5 1.4-.8 1.2-1.4-.8-.4-1.5-.6.7-.3 5zm32.5 4.1c0 1.1 2.8 9.8 4.9 15.4 1.7 4.5 9.4 19.5 10 19.5.3 0 1.6-1.8 2.8-4 2.3-3.9 2.3-3.9.4-7.2-1.1-1.8-3.3-6.7-5-10.8-4.4-11.1-5.4-13-7.1-13-.8 0-2.5-.3-3.7-.6-1.5-.4-2.3-.2-2.3.7zm230.1 7.9c-1.8 6-8.4 19.1-13.4 26.5-5.2 7.8-18.4 21.3-26.7 27.5-20 14.8-42.8 22.2-68.5 22.3-19.6.1-36.5-3.5-52.5-11.1-3.3-1.6-6-2.6-6-2.2 0 .4-1.6 1.5-3.5 2.6-1.9 1-3.5 2.2-3.5 2.6 0 2.2 35.2 16.9 36.8 15.4.3-.3 0-2.3-.6-4.3-1.1-3.5-.9-5.3.4-4.1.3.3 2.1 6.7 4.1 14.2 2 7.5 4 13.6 4.6 13.6.5 0 .7-.6.4-1.4-1.6-4.1-6.8-24.9-6.3-25.3.3-.3 1 1.5 1.7 4 .6 2.5 1.8 4.8 2.7 5.2.9.3 6.1.9 11.4 1.2l9.8.6v-4.1c0-2.3.5-4.2 1-4.2.6 0 1 1.8 1 4v4h5.2c2.8 0 8-.5 11.5-1.1 5.6-1 6.4-1.4 6.9-3.8.3-1.4.9-3.5 1.4-4.6 1.9-4.5.9 1.5-2.4 13.3-1.8 6.7-3 12.2-2.6 12.2.4 0 1-.8 1.2-1.8.3-.9 2-7.2 3.8-14 1.8-6.7 3.6-12.2 4.1-12.2 1.2 0 1.1 2.3-.1 5.6-.6 1.5-.9 2.9-.7 3.1.3.2 5.3-1.3 11.3-3.2 10.4-3.6 24.5-10.3 25.1-12.1.2-.5-1.1-1.7-2.7-2.6-1.7-.9-3-2.2-3-2.9 0-.8.7-.7 2.3.3 7.7 5 46.9 27 47.3 26.5.3-.2-9.5-6.2-21.8-13.2-12.3-7.1-23-13.5-23.8-14.3-1.6-1.6-1.3-1.5 4.1 1.3l3.6 1.8 4.4-3.4c2.4-1.8 6.3-5.1 8.6-7.3l4.1-3.9-2.8-3c-3.8-4.1-2.9-4.9 1.1-1.1l3.1 2.9 4.5-5c2.5-2.8 5.6-6.5 7-8.3l2.6-3.3-2.2-4c-1.3-2.2-2.1-4.3-1.8-4.5.3-.3 2.4 2.9 4.8 7.1 2.4 4.2 4.5 7.2 4.7 6.7.1-.5-1.8-4.4-4.2-8.7-2.5-4.4-4.3-8.2-4-8.4.7-.7 4.3 4 4.4 5.6 0 2.3 1.7 1.4 2.9-1.5.7-1.7 1.1-7.7.9-16.2-.3-13.1-.3-13.4-1.7-9zm-209.9 27.9L186 229l3 4.2c1.6 2.4 4.7 6.3 6.9 8.8l4 4.5 3.3-3.3 3.3-3.2-2.7-2.5c-1.4-1.3-4.8-5.2-7.4-8.7-2.6-3.5-5-6.7-5.4-7.1-.4-.5-1.7 1-2.8 3.2zm-6.3 10.9c-4.5 8.2-10.5 18.6-11.9 20.8-1.2 2-.9 2.6 3.1 7.3l4.4 5.1 10.2-10.2c5.7-5.7 10.3-10.5 10.3-10.8 0-.3-3-4.1-6.6-8.5-3.7-4.4-6.7-8.1-6.8-8.2-.1-.1-1.3 1.9-2.7 4.5z"/><path d="M388.2 240.2l-6.4 8.1 9.1 9.1 9.1 9.1v-13.4c0-11.9-.2-13.8-2.2-17.2-1.2-2.2-2.4-3.9-2.7-3.8-.3 0-3.5 3.7-6.9 8.1zM204.5 245l-2.9 3.1 4.9 4.5c2.8 2.4 6.7 5.6 8.7 7.1l3.7 2.5 3.6-2.1c2-1.1 4.2-2.1 4.8-2.1 1.5 0-3.1 2.8-40.1 23.9-16.7 9.5-30.5 17.1-30.8 16.8-.3-.3 6.5-4.5 15-9.3l15.6-8.9-4.5-4.5-4.5-4.5-13.4 13.4c-7.4 7.4-13.3 13.8-13.1 14.2.3.4 2.2.6 4.3.5 3.6-.2 14.4-6.1 67.5-36.8l6.8-4-7.3-5c-4-2.7-8.9-6.5-10.8-8.4-2-1.9-3.8-3.4-4.1-3.4-.3 0-1.8 1.4-3.4 3zM373 255.5c-4.1 3.6-7.8 6.5-8.2 6.5-2.2 0-.3 2.2 4 4.6 2.6 1.5 8.4 4.9 13 7.5 4.5 2.7 8.7 4.9 9.2 4.9 1.6 0 9-7.1 9-8.6 0-.7-4.4-5.8-9.7-11.3l-9.8-10-7.5 6.4z"/><path d="M189.2 260.3L179 270.5l5 4.3 5 4.3 5.2-2.9c14.6-8.2 21.8-12.5 21.7-13.1 0-.6-15.3-13.1-16-13.1-.3 0-5 4.6-10.7 10.3zm-24.2 4.9c-1.3 2.4-5.7 10.1-9.8 17.1-5.5 9.4-7.2 13.1-6.4 13.9.9.9 4.5-2.4 13.9-12.2 7.1-7.3 12.8-13.6 12.8-14 0-.7-7.2-9-7.8-9-.2 0-1.4 1.9-2.7 4.2zm42.2 8.8c-7.3 4.3-13.5 8-13.8 8.3-.7.6 16.3 12 22.7 15.3 4.7 2.3 5.5 2.4 27.4 2.4 14.5 0 22.5-.4 22.5-1 0-1.2-3.8-15.2-4.2-15.5-.2-.2-4.2-1.4-9-2.9-9.8-3-18.8-6.9-26.6-11.5-2.9-1.7-5.4-3.1-5.5-3-.1.1-6.2 3.6-13.5 7.9zm144.8-3.9c-6.8 4.1-21.4 10.1-29 11.9l-4.6 1.1-2.2 7.8c-1.2 4.2-2.2 8.1-2.2 8.5 0 .4 10.7.6 23.8.4l23.7-.3 8-4.8c4.4-2.6 10.2-6.4 12.9-8.3 5.8-4.3 7.8-2.5-19.4-17.6l-4.5-2.5-6.5 3.8zm-174.5 21c-6.6 3.9-12.7 7.4-13.5 7.9-.9.6 8.7 1 25 1h26.5l-8-5.1c-4.4-2.8-9.6-6.4-11.6-8-2-1.6-4.3-2.9-5-2.8-.8 0-6.8 3.2-13.4 7zm89.7-6c.2.8 1.3 4.4 2.4 8.1l1.9 6.8H289v-13.7l-9.5-.7c-5.2-.3-10.2-.9-11.1-1.3-1.2-.5-1.6-.2-1.2.8zm40.8 0c-2.5.4-7.3.8-10.7.8l-6.2.1v14h17.8l1.4-5.2c1.8-6.6 2.8-10.8 2.5-10.7-.2.1-2.3.5-4.8 1zm71.4 5.2c-5 3.4-10.4 7-12 7.9-2.8 1.7-2.4 1.7 14.9 1.8h17.8l-.3-5.2c-.3-5-.5-5.3-4.8-7.9-2.5-1.5-4.9-2.7-5.5-2.8-.5 0-5.1 2.8-10.1 6.2z"/></svg>