<svg version="1.0" xmlns="http://www.w3.org/2000/svg" width="533.333" height="401.333" viewBox="0 0 400 301"><path d="M0 109.5C0 169.7.2 219 .5 219c1.1 0 65-25.2 65.8-26 .5-.4-1.9-6.3-5.3-13s-5.8-12.6-5.3-13c.4-.4 19.5-8.1 42.3-17 22.8-8.9 43.6-17.1 46.2-18.1l4.7-1.8 22 42.2c12.1 23.2 24.9 47.8 28.6 54.7 3.6 6.9 8.5 16.3 10.7 20.8 2.9 5.8 4.9 8.7 6.6 9.3 1.9.8 2.3 1.4 1.8 3.4-.4 1.7.1 3.7 1.7 6.2 3.7 6 5.7 11.9 5.9 17.6l.1 5.2.6-4.5.6-4.5 5 9.5 5.1 9.5 6.4.3c5.7.2 7.9-.3 17.7-4.1l11.2-4.4 2.3 4.3 2.3 4.4H400v-14.5c0-9.5-.4-14.5-1.1-14.5-.5 0-10.8 4-22.8 8.9-11.9 4.9-23.5 9.4-25.7 10-5.5 1.5-13 1.4-16.3-.4-4.2-2.1-9.6-9.2-8.3-10.8.7-.8.7-1.8.2-2.7-.9-1.3-1-1.3-1 0s-.2 1.3-1.4 0c-.8-.8-19.3-35-41.1-76-21.9-41-40-74.7-40.2-75-.2-.2-.8.2-1.3.9-.4.8-2.6 1.5-5.1 1.5-4 .1-4.4-.2-6.9-4.4-4-6.9-4.2-7.8-1.9-10.1 2.6-2.6 6.5-2.2 6.2.7-.2 1.4.4 2.4 1.7 2.7 1.9.5 1.9.3-.2-3.7-1.2-2.2-2.1-4.5-2-4.9.4-1.3-1.9-4.8-2.7-4.2-.5.3-1.2-.6-1.5-2-.6-2.3-.7-2.4-4.2-.9-1.9.8-4.4 1.2-5.5.9-2.2-.7-7.9-11.3-7.2-13.3.5-1.2 6.3-4.7 6.7-4 3.9 5.9 3.8 5.9 1.9 7.3-1.7 1.3-1.7 1.4.5.8 1.3-.3 2.2-.1 2.2.6 0 .6-.7 1.1-1.5 1.1s-1.5.4-1.5 1 .9.5 2.5-.2c2.4-1.1 2.4-1.1.8-4.2-.9-1.7-1.8-3.7-1.9-4.4-.5-2.6-14.8-28.1-15.5-27.6-1.3.8-2.3-4.5-2.4-11.8 0-6.1.3-6.9 3-9.8 1.6-1.7 5.2-4.1 8-5.4C221.7 28.2 292 1 293.4 1.1c1.3 0-.3.8-11.9 5.3-73.3 28.4-72.7 28.1-75.2 32.9-2.6 5.2-2.9 4.5 17.6 42.9 8.2 15.4 13.9 27.2 13.5 27.9-.4.7-.3.9.3.6 1.4-.9 9.7 14.9 8.7 16.5-.4.6-.3.8.4.5 1.3-.9 12.5 20 11.6 21.5-.4.6-.3.8.3.5 1.3-.8 8.6 13 7.7 14.5-.5.7-.3.8.6.3 1-.6 1.2-.4.7.9-.4 1-.3 1.5.3 1.1 1.2-.8 7.3 11.2 6.4 12.7-.5.7-.2.8.6.3 1-.6 1.2-.4.7.9-.4 1-.3 1.5.3 1.1 1.2-.8 7.3 11.2 6.4 12.7-.5.7-.2.8.6.3 1-.6 1.2-.4.7.9-.4 1-.3 1.5.3 1.1 1.2-.8 8.3 13.2 7.4 14.7-.4.7-.3.8.4.4 1.4-.8 9.6 15 8.6 16.6-.4.7-.3.8.4.4 1.4-.8 8.6 13 7.6 14.6-.4.6-.3.8.4.4 1.3-.8 13.6 22 12.6 23.6-.4.7-.3.8.4.4s2.4 1.7 4.4 5.6c3.9 7.5 4.5 9 2.4 6.4-.9-1.1-1.6-1.5-1.6-.9s.7 1.6 1.5 2.3c.8.7 1.5.9 1.5.4 0-.4 1.1.3 2.5 1.6 1.3 1.2 2.2 2.6 2 3-1 1.6 5.7 3.2 11.2 2.8 4.3-.3 11.7-2.8 28.8-9.7 12.7-5.1 23.6-9.5 24.3-9.8.9-.4 1.2-18.4 1.2-85.4V99.1l-27.7-49.5L344.6 0H0v109.5zm324-58.1c1 1.3.7 1.3-1.8.4-5.4-2.1-9.8 2.8-7.6 8.5.4 1.1 1.2.8 3.4-1.4 3.5-3.6 7.3-3.7 10.5-.4 4 3.9 2.9 8.5-2.5 10.4-5 1.7-10.5-1.8-12.9-8.2-1.6-4.2-1.4-5.5 1.4-8.2 2.7-2.8 7.6-3.3 9.5-1.1zM307.8 59c5.5 5.1 7 11.3 3.7 15-2.3 2.6-7.5 2.6-10.7 0-2.9-2.2-5.8-7.8-5.8-10.9 0-5.5 8.4-8.1 12.8-4.1zm-24.4 8.9c1.1 1.3 1.5 2.7 1.1 4-.4 1.4-.2 2.1.6 2.1 2.1 0 4.9 3.2 4.9 5.5 0 5-9.2 8.5-13.1 4.9-1.6-1.4-2-2.7-1.6-5.1.4-2.3.2-3.3-.7-3.3-2.2 0-3.9-2.8-3.2-5.3 1.1-4.4 8.9-6.2 12-2.8zm-80.4 31c1.6 3.3 2.7 6.6 2.4 7.4-.7 1.8-10.6 5.7-14.4 5.7-2.4 0-3.3-.9-6-5.5-1.8-3.1-2.9-6.3-2.6-7.1.8-2 10.3-6.3 14.3-6.3 3-.1 3.5.4 6.3 5.8zm-29.1 11.5c4.2 7.2 3.8 8.1-5.3 11.9-6.1 2.5-7 2.7-8.9 1.4-1.3-.8-3.3-3.8-4.7-6.6-3-6.4-2.4-7.7 5.1-10.8 8-3.3 9.7-2.8 13.8 4.1zm40.8 11c3.4 4.3 5.8 10.6 4.7 12.4-1.3 1.9-13.8 6.7-15.7 5.9-2-.8-7.9-11.3-7.5-13.4.3-1.7 11.6-7.2 15-7.3.9 0 2.5 1.1 3.5 2.4zM185 138c1.1 2.2 2 4.3 2 4.8 0 1-9.4 5.2-11.6 5.2-1.7 0-5.7-7.7-4.8-9.1.8-1.4 10.7-5.7 11.7-5.2.4.2 1.6 2.2 2.7 4.3zm42.5 8.8c2.1 1.4 6.6 10.3 6.3 12.4-.2 1.6-1.9 2.7-6.7 4.5-8.6 3.2-10 2.8-13.3-3.2-4.2-7.7-3.9-8.9 3.5-11.8 6.6-2.8 8.6-3.1 10.2-1.9zm-29.3 11.4c.8.7 2.8 3.7 4.4 6.5 3.5 6.5 3 7.8-4.7 11-8.8 3.6-10.2 3.2-13.9-3.4-4.3-8.1-3.9-9.2 4.5-12.5 8.3-3.2 7.7-3.1 9.7-1.6zm45.8 18c1.1 1.8 1.9 4 1.8 4.8-.2.8-3.4 3.8-7.2 6.7-7.9 6.1-8.3 6-11.6-2.3-2.7-6.6-2.3-7.4 6-10.3 7.6-2.7 8.7-2.6 11 1.1zm43.4 87.4c2.2-.5 2.9 0 5.1 3.7 1.4 2.4 2.5 5.1 2.5 5.9 0 1.4-11.7 7.4-12.7 6.5-.2-.3 2.1-1.4 5.2-2.7 5.4-2.2 7-4.5 4-5.6-.8-.4-1.3-.9-1.1-1.3.2-.3-.3-2-1.1-3.6l-1.4-3 .6 3.6c.7 4.5-2 8.3-7.2 10-3.4 1.1-3.5 1.3-1.8 2.5 2 1.5 1.7 1.8-1 .8-1.4-.6-6.2-8.4-5-8.4.2 0 1.2 1.4 2.1 3.1 1.4 2.9 1.7 3 3.2 1.6 1.4-1.5 1.3-1.9-1.1-4.3-3.4-3.4-3.4-4.5.1-3.8 2.2.4 2.9 0 3.8-2 1.4-3.1.9-3.7-2.5-3l-2.6.6 2.5-1.5c2.2-1.2 2.7-1.2 4.2.1 1.1.9 2.7 1.2 4.2.8zM262.2 278c2.8 5.7 3.2 9.2 1 9.6-.7.1-.8 0-.2-.3.5-.2 1-.9 1-1.4 0-.6-.8-.6-1.9.1-2.5 1.3-3.4 1.3-2.6 0 .3-.5-2.1.6-5.4 2.6-3.3 2-6.4 3.4-6.8 3.1-.4-.3-2.1-3-3.8-6.1-2.4-4.4-2.8-5.9-1.9-7.3 1.5-2.4 11.2-6.3 14.9-6 2.6.2 3.4 1 5.7 5.7z"/><path d="M298.8 59.1c-5.2 3 1.1 15.9 7.8 15.9 6.1 0 6.9-8.4 1.3-14-3.1-3.1-6.1-3.7-9.1-1.9zM349 .5c0 .7 7.9 14.8 8.9 15.7.6.6 40.7-14.4 42-15.8.2-.2-11.1-.4-25.2-.4S349 .2 349 .5z"/></svg>